<?xml version="1.0" encoding="UTF-8" standalone="no"?>
<svg
   xmlns:dc="http://purl.org/dc/elements/1.1/"
   xmlns:cc="http://creativecommons.org/ns#"
   xmlns:rdf="http://www.w3.org/1999/02/22-rdf-syntax-ns#"
   xmlns:svg="http://www.w3.org/2000/svg"
   xmlns="http://www.w3.org/2000/svg"
   version="1.1"
   id="svg4225"
   viewBox="0 0 737.04112 212.07155"
   height="59.851303mm"
   width="208.00938mm">
  <defs
     id="defs4227" />
  <metadata
     id="metadata4230">
    <rdf:RDF>
      <cc:Work
         rdf:about="">
        <dc:format>image/svg+xml</dc:format>
        <dc:type
           rdf:resource="http://purl.org/dc/dcmitype/StillImage" />
        <dc:title></dc:title>
      </cc:Work>
    </rdf:RDF>
  </metadata>
  <g
     transform="translate(-9.5979231,-300.96059)"
     id="layer1">
    <g
       id="g4216"
       transform="translate(4.0444198,-255.59312)">
      <g
         id="flowRoot4136-0"
         style="font-style:normal;font-variant:normal;font-weight:normal;font-stretch:normal;font-size:80px;line-height:125%;font-family:Muli;-inkscape-font-specification:'Muli, Normal';text-align:start;letter-spacing:0px;word-spacing:0px;writing-mode:lr-tb;text-anchor:start;fill:#000000;fill-opacity:1;stroke:none;stroke-width:1px;stroke-linecap:butt;stroke-linejoin:miter;stroke-opacity:1"
         transform="matrix(0.85150006,0,0,0.85150006,-98.01106,324.49054)">
        <path
           id="path4231-6"
           d="m 168.74602,304.61453 0,26.4 q -3.36,1.76 -8.8,2.88 -5.44,1.04 -11.04,1.04 -8.48,0 -14.64,-3.44 -6.16,-3.52 -9.44,-10.08 -3.2,-6.56 -3.2,-15.68 0,-9.04 3.2,-15.52 3.28,-6.56 9.28,-10 6.08,-3.52 14.32,-3.52 6,0 10.96,1.84 5.04,1.76 8.64,5.36 l -2.56,5.04 q -4.16,-3.52 -8.16,-5.04 -3.92,-1.6 -8.88,-1.6 -9.68,0 -14.88,6.08 -5.12,6 -5.12,17.36 0,11.6 5.28,17.68 5.28,6 15.36,6 7.12,0 13.68,-2.24 l 0,-17.36 -14.16,0 0,-5.2 20.16,0 z" />
        <path
           id="path4233-8"
           d="m 215.02352,313.97453 -29.52,0 q 0.08,7.68 3.52,11.6 3.52,3.92 10.16,3.92 7.04,0 12.96,-4.72 l 2.16,4.72 q -2.64,2.48 -6.8,3.92 -4.08,1.44 -8.4,1.44 -9.44,0 -14.8,-5.52 -5.36,-5.6 -5.36,-15.28 0,-6.16 2.4,-10.88 2.4,-4.8 6.72,-7.44 4.32,-2.64 9.84,-2.64 8,0 12.56,5.28 4.56,5.2 4.56,14.4 l 0,1.2 z m -17.04,-15.84 q -5.04,0 -8.24,3.04 -3.12,3.04 -4,8.56 l 23.44,0 q -0.48,-5.68 -3.36,-8.64 -2.8,-2.96 -7.84,-2.96 z" />
        <path
           id="path4235-7"
           d="m 238.53727,334.85453 q -10.16,0 -16.08,-5.2 l 2.16,-4.8 q 3.28,2.56 6.64,3.68 3.36,1.12 7.52,1.12 4.56,0 6.88,-1.52 2.4,-1.6 2.4,-4.56 0,-2.4 -1.6,-3.84 -1.6,-1.44 -5.28,-2.24 l -6.8,-1.6 q -5.04,-1.12 -7.84,-4 -2.72,-2.88 -2.72,-6.88 0,-5.28 4.24,-8.56 4.24,-3.36 11.2,-3.36 4.24,0 8,1.36 3.76,1.36 6.32,3.92 l -2.16,4.72 q -5.68,-4.72 -12.16,-4.72 -4.32,0 -6.72,1.68 -2.32,1.6 -2.32,4.56 0,2.48 1.44,3.92 1.52,1.44 4.8,2.24 l 6.8,1.68 q 5.6,1.28 8.32,4 2.72,2.64 2.72,6.96 0,5.2 -4.24,8.32 -4.24,3.12 -11.52,3.12 z" />
        <path
           id="path4237-9"
           d="m 272.79602,299.17453 0,22 q 0,4.48 1.84,6.32 1.84,1.76 5.2,1.76 2.24,0 4.32,-0.72 l 0,5.52 q -2.48,0.8 -5.6,0.8 -5.76,0 -9.04,-3.2 -3.2,-3.28 -3.2,-9.6 l 0,-22.88 -7.84,0 0,-5.12 7.84,0 0,-10.32 6.48,-2.32 0,12.64 11.52,0 0,5.12 -11.52,0 z" />
        <path
           id="path4239-0"
           d="m 292.12477,334.29453 0,-40.24 6.48,0 0,40.24 -6.48,0 z m -0.64,-57.28 7.92,0 0,7.36 -7.92,0 0,-7.36 z" />
        <path
           id="path4241-3"
           d="m 327.82727,334.85453 q -5.68,0 -10,-2.56 -4.32,-2.56 -6.72,-7.28 -2.32,-4.72 -2.32,-11.04 0,-6.32 2.32,-11.04 2.4,-4.72 6.72,-7.28 4.32,-2.56 10,-2.56 5.68,0 10,2.56 4.32,2.56 6.64,7.28 2.4,4.72 2.4,11.04 0,6.32 -2.4,11.04 -2.32,4.72 -6.64,7.28 -4.32,2.56 -10,2.56 z m 0,-5.36 q 6,0 9.2,-3.92 3.2,-4 3.2,-11.6 0,-7.36 -3.28,-11.36 -3.28,-4.08 -9.12,-4.08 -5.92,0 -9.2,4.08 -3.28,4 -3.28,11.36 0,7.6 3.2,11.6 3.28,3.92 9.28,3.92 z m 2.24,-40.64 -4.56,0 8,-16.32 7.52,0 -10.96,16.32 z" />
        <path
           id="path4243-3"
           d="m 377.04852,293.09453 q 14.48,0 14.48,15.92 l 0,25.28 -6.48,0 0,-24.96 q 0,-5.6 -2.24,-8.16 -2.24,-2.64 -7.04,-2.64 -5.6,0 -8.96,3.44 -3.36,3.44 -3.36,9.28 l 0,23.04 -6.48,0 0,-28.96 q 0,-6.24 -0.64,-11.28 l 6.16,0 0.64,7.2 q 1.84,-3.92 5.52,-6 3.68,-2.16 8.4,-2.16 z" />
        <path
           id="path4245-3"
           d="m 425.58102,334.29453 0,-56.96 6.56,0 0,56.96 -6.56,0 z" />
        <path
           id="path4247-7"
           d="m 465.48602,293.09453 q 14.48,0 14.48,15.92 l 0,25.28 -6.48,0 0,-24.96 q 0,-5.6 -2.24,-8.16 -2.24,-2.64 -7.04,-2.64 -5.6,0 -8.96,3.44 -3.36,3.44 -3.36,9.28 l 0,23.04 -6.48,0 0,-28.96 q 0,-6.24 -0.64,-11.28 l 6.16,0 0.64,7.2 q 1.84,-3.92 5.52,-6 3.68,-2.16 8.4,-2.16 z" />
        <path
           id="path4249-3"
           d="m 536.92102,293.09453 q 13.36,0 13.36,15.92 l 0,25.28 -6.48,0 0,-24.96 q 0,-5.68 -2,-8.24 -1.92,-2.56 -6.32,-2.56 -5.12,0 -8,3.44 -2.88,3.44 -2.88,9.36 l 0,22.96 -6.48,0 0,-24.96 q 0,-5.6 -2,-8.16 -2,-2.64 -6.4,-2.64 -5.12,0 -8.08,3.44 -2.88,3.44 -2.88,9.36 l 0,22.96 -6.48,0 0,-28.96 q 0,-6.24 -0.64,-11.28 l 6.16,0 0.64,7.04 q 1.68,-3.84 4.96,-5.92 3.36,-2.08 7.76,-2.08 4.8,0 7.84,1.92 3.04,1.92 4.48,5.92 1.84,-3.6 5.36,-5.68 3.6,-2.16 8.08,-2.16 z" />
        <path
           id="path4251-2"
           d="m 579.23352,334.85453 q -5.68,0 -10,-2.56 -4.32,-2.56 -6.72,-7.28 -2.32,-4.72 -2.32,-11.04 0,-6.32 2.32,-11.04 2.4,-4.72 6.72,-7.28 4.32,-2.56 10,-2.56 5.68,0 10,2.56 4.32,2.56 6.64,7.28 2.4,4.72 2.4,11.04 0,6.32 -2.4,11.04 -2.32,4.72 -6.64,7.28 -4.32,2.56 -10,2.56 z m 0,-5.36 q 6,0 9.2,-3.92 3.2,-4 3.2,-11.6 0,-7.36 -3.28,-11.36 -3.28,-4.08 -9.12,-4.08 -5.92,0 -9.2,4.08 -3.28,4 -3.28,11.36 0,7.6 3.2,11.6 3.28,3.92 9.28,3.92 z" />
        <path
           id="path4253-6"
           d="m 628.45477,293.09453 q 5.28,0 9.36,2.56 4.08,2.56 6.32,7.28 2.24,4.64 2.24,10.88 0,6.24 -2.24,11.04 -2.24,4.72 -6.32,7.36 -4.08,2.64 -9.36,2.64 -4.72,0 -8.24,-2.08 -3.52,-2.08 -5.36,-5.92 l 0,7.44 -6.48,0 0,-58.88 6.48,0 0,25.76 q 1.76,-3.92 5.28,-6 3.6,-2.08 8.32,-2.08 z m -1.2,36.4 q 5.84,0 9.12,-4.08 3.28,-4.16 3.28,-11.6 0,-7.28 -3.28,-11.28 -3.2,-4 -9.12,-4 -6,0 -9.2,4 -3.2,4 -3.2,11.44 0,7.44 3.2,11.52 3.2,4 9.2,4 z" />
        <path
           id="path4255-5"
           d="m 656.34352,334.29453 0,-40.24 6.48,0 0,40.24 -6.48,0 z m -0.64,-57.28 7.92,0 0,7.36 -7.92,0 0,-7.36 z" />
        <path
           id="path4257-2"
           d="m 675.40602,334.29453 0,-58.88 6.48,0 0,58.88 -6.48,0 z" />
        <path
           id="path4259-6"
           d="m 694.46852,334.29453 0,-40.24 6.48,0 0,40.24 -6.48,0 z m -0.64,-57.28 7.92,0 0,7.36 -7.92,0 0,-7.36 z" />
        <path
           id="path4261-5"
           d="m 748.97102,294.05453 0,40.24 -6.4,0 0,-7.28 q -1.76,3.76 -5.36,5.84 -3.52,2 -8.24,2 -5.36,0 -9.44,-2.56 -4,-2.56 -6.24,-7.2 -2.16,-4.72 -2.16,-10.96 0,-6.24 2.24,-10.96 2.24,-4.8 6.24,-7.44 4.08,-2.64 9.36,-2.64 4.72,0 8.24,2.08 3.52,2.08 5.36,5.84 l 0,-6.96 6.4,0 z m -18.72,35.44 q 5.92,0 9.12,-4 3.2,-4.08 3.2,-11.52 0,-7.44 -3.2,-11.44 -3.2,-4 -9.12,-4 -5.92,0 -9.28,4.16 -3.28,4.08 -3.28,11.44 0,7.36 3.28,11.36 3.28,4 9.28,4 z" />
        <path
           id="path4263-8"
           d="m 780.21977,293.09453 q 2,0 3.68,0.48 l -0.16,5.92 q -1.84,-0.64 -4.24,-0.64 -5.84,0 -8.72,3.68 -2.8,3.6 -2.8,8.8 l 0,22.96 -6.48,0 0,-28.96 q 0,-6.24 -0.64,-11.28 l 6.16,0 0.64,7.44 q 1.52,-4.08 4.88,-6.24 3.36,-2.16 7.68,-2.16 z" />
        <path
           id="path4265-7"
           d="m 790.40602,334.29453 0,-40.24 6.48,0 0,40.24 -6.48,0 z m -0.64,-57.28 7.92,0 0,7.36 -7.92,0 0,-7.36 z" />
        <path
           id="path4267-9"
           d="m 844.90852,294.05453 0,40.24 -6.4,0 0,-7.28 q -1.76,3.76 -5.36,5.84 -3.52,2 -8.24,2 -5.36,0 -9.44,-2.56 -4,-2.56 -6.24,-7.2 -2.16,-4.72 -2.16,-10.96 0,-6.24 2.24,-10.96 2.24,-4.8 6.24,-7.44 4.08,-2.64 9.36,-2.64 4.72,0 8.24,2.08 3.52,2.08 5.36,5.84 l 0,-6.96 6.4,0 z m -18.72,35.44 q 5.92,0 9.12,-4 3.2,-4.08 3.2,-11.52 0,-7.44 -3.2,-11.44 -3.2,-4 -9.12,-4 -5.92,0 -9.28,4.16 -3.28,4.08 -3.28,11.44 0,7.36 3.28,11.36 3.28,4 9.28,4 z" />
      </g>
      <g
         id="flowRoot4148-6"
         style="font-style:normal;font-variant:normal;font-weight:normal;font-stretch:normal;font-size:180px;line-height:125%;font-family:Muli;-inkscape-font-specification:'Muli, Normal';text-align:start;letter-spacing:0px;word-spacing:0px;writing-mode:lr-tb;text-anchor:start;fill:#003da5;fill-opacity:1;stroke:none;stroke-width:1px;stroke-linecap:butt;stroke-linejoin:miter;stroke-opacity:1"
         transform="matrix(1.0815212,0,0,1.0815212,-128.96898,175.08964)">
        <path
           id="path4270-0"
           d="m 169.02266,547.35702 0,-115.56 -44.64,0 0,-12.6 104.22,0 0,12.6 -44.64,0 0,115.56 -14.94,0 z" />
        <path
           id="path4272-4"
           d="m 246.69547,547.35702 0,-128.16 81,0 0,12.24 -66.42,0 0,44.64 62.82,0 0,12.42 -62.82,0 0,46.62 66.42,0 0,12.24 -81,0 z" />
        <path
           id="path4274-1"
           d="m 453.13578,547.35702 -15.66,0 -15.84,-42.66 q -2.88,-7.92 -8.1,-10.62 -5.04,-2.7 -14.4,-2.7 l -32.04,0 0,55.98 -14.58,0 0,-128.16 50.94,0 q 20.7,0 31.68,9.18 11.16,9.18 11.16,26.46 0,12.6 -6.66,21.24 -6.48,8.46 -18.9,12.06 5.58,0.9 9.54,4.86 3.96,3.78 6.66,10.98 l 16.2,43.38 z m -50.94,-68.22 q 29.52,0 29.52,-24.12 0,-11.88 -7.2,-17.64 -7.2,-5.94 -22.32,-5.94 l -35.1,0 0,47.7 35.1,0 z" />
        <path
           id="path4276-0"
           d="m 477.32047,547.35702 0,-128.16 81,0 0,12.24 -66.42,0 0,44.64 62.82,0 0,12.42 -62.82,0 0,46.62 66.42,0 0,12.24 -81,0 z" />
        <path
           id="path4278-4"
           d="m 622.06297,548.79702 q -30.06,0 -47.88,-16.2 l 5.58,-11.34 q 9.54,8.1 19.44,11.52 9.9,3.42 23.04,3.42 15.48,0 23.76,-5.94 8.46,-6.12 8.46,-17.1 0,-6.48 -4.14,-10.44 -3.96,-4.14 -10.62,-6.48 -6.48,-2.34 -17.46,-4.86 -14.76,-3.24 -24.3,-7.02 -9.54,-3.78 -15.48,-10.8 -5.94,-7.2 -5.94,-18.72 0,-10.98 5.76,-19.26 5.76,-8.46 16.2,-13.14 10.62,-4.68 24.66,-4.68 13.32,0 24.84,4.14 11.52,4.14 19.44,12.06 l -5.76,11.34 q -9,-7.74 -18.36,-11.34 -9.18,-3.6 -20.16,-3.6 -14.94,0 -23.4,6.48 -8.46,6.3 -8.46,17.46 0,9.72 7.38,14.58 7.38,4.86 22.68,8.46 16.56,3.96 25.92,7.38 9.54,3.24 15.84,10.08 6.3,6.66 6.3,17.82 0,10.8 -5.76,19.08 -5.76,8.1 -16.56,12.6 -10.62,4.5 -25.02,4.5 z" />
        <path
           id="path4280-8"
           d="m 790.74828,547.35702 -14.04,-32.94 -66.96,0 -14.22,32.94 -15.3,0 56.34,-128.16 12.96,0 56.34,128.16 -15.12,0 z m -75.78,-45.18 56.52,0 -28.26,-65.88 -28.26,65.88 z" />
      </g>
    </g>
  </g>
</svg>
